<svg xmlns="http://www.w3.org/2000/svg" viewBox="0 0 244 24">
    <g fill="none">
        <path d="M178.428 6.064c.731-6.174 10.05-7.288 14.44-3.914 2.162 1.75-.128 4.519-2.036 3.119-2.354-1.496-7.697-2.196-8.365 1.114-.859 5.219 12.977 2.227 12.754 10.693-.222 8.083-11.927 8.274-16.316 4.646-1.05-.859-1.017-2.259-.445-3.119.827-.827 1.75-1.114 2.83-.222 2.61 1.782 9.32 3.118 9.797-1.4-.414-4.71-13.644-1.878-12.66-10.917zm-27.465 0c.731-6.174 10.05-7.288 14.44-3.914 2.162 1.75-.128 4.519-2.036 3.119-2.354-1.496-7.697-2.196-8.365 1.114-.858 5.219 12.977 2.227 12.754 10.693-.222 8.083-11.927 8.274-16.316 4.646-1.05-.859-1.017-2.259-.445-3.119.827-.827 1.75-1.114 2.831-.222 2.608 1.782 9.32 3.118 9.796-1.4-.414-4.71-13.645-1.878-12.66-10.917zm79.502-3.66c.86-1.686 3.15-1.75 3.944 0l8.969 17.854c1.304 2.483-2.545 4.456-3.69 1.974l-1.4-2.801h-11.735l-1.368 2.8c-.508 1.083-1.686 1.305-2.83 1.083-1.018-.574-1.654-1.719-1.018-3.056zm-23.967.796c0-2.61 4.199-2.705 4.199 0v18.172c0 2.642-4.199 2.705-4.199 0zM105.861 1.29c8.078 0 9.732 10.821 2.99 13.526l4.23 5.156c1.653 2.45-1.654 4.806-3.563 2.387l-4.802-6.874h-4.994v5.76c0 2.769-4.23 2.864-4.23.063V3.232c0-1.114.859-1.941 1.909-1.941zm-70.229-.285c.922 0 1.463.541 2.004 1.146l6.997 9.452L51.885 1.8c1.05-1.304 3.625-.795 3.625 1.4v17.918c0 1.401-.89 2.196-1.908 2.196-1.145 0-2.035-.795-2.035-2.196V9.343l-5.28 6.683c-1.145 1.4-2.576 1.4-3.626 0l-4.739-6.683v11.775c0 1.401-1.145 2.197-2.29 2.197-1.018 0-1.908-.796-1.908-2.197V3.201c0-1.655 1.4-2.196 1.908-2.196zm102.115.286c2.926 0 2.863 4.137 0 4.137h-9.16v4.774h8.015c2.83 0 2.83 4.169 0 4.169h-8.015v4.773h9.7c2.895 0 3.117 4.17 0 4.17H126.33a1.943 1.943 0 01-1.972-1.973V3.264c0-1.146.86-1.973 1.972-1.973zm-60.878-.287c4.135 0 7.856 2.77 7.856 8.084 0 5.028-3.721 7.829-7.855 7.829h-5.312v4.2c0 1.402-.89 2.197-2.036 2.197-1.05 0-2.163-.796-2.163-2.196V3.2c0-1.05.828-2.196 2.163-2.196zM232.437 7.37l-3.912 7.861h7.506l-3.594-7.86zM76.869 5.014h-5.311v7.924h5.311c2.13 0 3.817-1.877 3.817-3.85 0-2.228-1.686-4.074-3.817-4.074zm28.992.127h-6.138v6.684h6.138c4.134 0 4.389-6.684 0-6.684zM9.925 18.873h10.537a2.128 2.128 0 110 4.256H9.925a2.128 2.128 0 010-4.256z" fill="#0C226E"/>
        <circle fill="#EC3A47" cx="2.527" cy="21.001" r="2.128"/>
        <path d="M2.529 9.991h10.537a2.128 2.128 0 110 4.256H2.529a2.128 2.128 0 110-4.256z" fill="#97E6F5"/>
        <path d="M2.529 1.11h17.933a2.128 2.128 0 110 4.256H2.53a2.128 2.128 0 010-4.256z" fill="#0C226E"/>
    </g>
</svg>
