<svg width="180" height="40" fill="none" xmlns="http://www.w3.org/2000/svg"><g clip-path="url(#a)"><path d="m0 31.95 1.35-3.737c.585.41 1.305.638 2.16.638.675 0 1.17-.228 1.53-.638.36-.41.54-1.094.54-1.915V8.478h5.085v17.775c0 2.05-.585 3.692-1.755 4.922-1.17 1.185-2.79 1.823-4.905 1.823-1.71-.045-3.06-.364-4.005-1.048Zm5.895-26.8c-.585-.547-.9-1.23-.9-2.05 0-.821.315-1.505.9-2.052.585-.547 1.35-.82 2.295-.82.945 0 1.71.273 2.295.775.585.501.9 1.185.9 2.005 0 .866-.315 1.55-.9 2.142-.585.547-1.35.866-2.295.866-.945-.045-1.71-.319-2.295-.866ZM32.265 8.477v17.821H27.45v-2.142a6.744 6.744 0 0 1-2.43 1.778c-.945.41-1.935.592-3.06.592-2.295 0-4.14-.683-5.49-2.005-1.35-1.368-2.025-3.327-2.025-5.971V8.477h5.085v9.298c0 2.872 1.17 4.285 3.555 4.285 1.215 0 2.205-.41 2.925-1.231.72-.82 1.125-2.006 1.125-3.6V8.476h5.13ZM38.25 25.98c-1.395-.365-2.52-.821-3.33-1.368l1.71-3.692c.765.502 1.71.912 2.835 1.23 1.125.32 2.205.502 3.285.502 2.16 0 3.24-.547 3.24-1.64 0-.502-.315-.867-.9-1.095-.585-.228-1.485-.41-2.7-.547-1.44-.227-2.61-.455-3.555-.774a5.24 5.24 0 0 1-2.43-1.504c-.675-.73-1.035-1.778-1.035-3.1 0-1.14.315-2.142.945-3.008.63-.866 1.575-1.55 2.79-2.05 1.215-.502 2.7-.73 4.365-.73 1.26 0 2.475.137 3.69.41 1.215.274 2.25.638 3.06 1.14l-1.71 3.691a10.201 10.201 0 0 0-5.085-1.321c-1.08 0-1.89.136-2.43.455-.54.32-.81.684-.81 1.185 0 .547.315.958.9 1.14.585.228 1.53.41 2.79.638 1.44.228 2.61.501 3.51.775.9.273 1.71.775 2.385 1.504.675.73 1.035 1.732 1.035 3.054 0 1.093-.315 2.096-.99 2.962-.675.866-1.62 1.55-2.88 2.006-1.26.455-2.745.729-4.455.729a19.308 19.308 0 0 1-4.23-.593ZM65.115 25.387c-.495.365-1.125.638-1.845.866a9.317 9.317 0 0 1-2.295.273c-2.07 0-3.69-.546-4.86-1.64-1.125-1.094-1.71-2.69-1.71-4.786v-7.293h-2.7V8.842h2.7v-4.33h5.085v4.33h4.365v3.965H59.49v7.247c0 .73.18 1.322.585 1.732.36.41.9.593 1.62.593.81 0 1.485-.228 2.07-.684l1.35 3.692ZM85.185 8.477V23.29c0 3.282-.855 5.698-2.52 7.293-1.665 1.595-4.14 2.37-7.335 2.37-1.71 0-3.33-.228-4.815-.638-1.53-.41-2.79-1.049-3.78-1.823L68.76 26.8c.72.638 1.665 1.094 2.79 1.458a10.96 10.96 0 0 0 3.42.547c1.755 0 3.06-.41 3.915-1.185.855-.82 1.26-2.005 1.26-3.646v-.775c-1.35 1.458-3.195 2.233-5.535 2.233-1.62 0-3.105-.364-4.41-1.093-1.35-.73-2.385-1.732-3.195-3.009-.765-1.321-1.17-2.78-1.17-4.512 0-1.686.405-3.19 1.17-4.512A7.578 7.578 0 0 1 70.2 9.298c1.35-.73 2.835-1.094 4.41-1.094 2.565 0 4.5.866 5.805 2.552V8.477h4.77Zm-6.3 11.486c.855-.82 1.305-1.869 1.305-3.145 0-1.322-.45-2.37-1.305-3.145-.855-.82-1.98-1.185-3.33-1.185s-2.475.41-3.33 1.185c-.855.82-1.305 1.869-1.305 3.145 0 1.322.45 2.37 1.305 3.145.855.82 1.98 1.185 3.33 1.185s2.43-.365 3.33-1.185ZM106.425 18.824H93.15c.225 1.093.81 1.96 1.71 2.598.9.638 2.025.957 3.33.957.9 0 1.71-.137 2.43-.41.72-.274 1.35-.73 1.98-1.322l2.7 2.962c-1.665 1.915-4.095 2.872-7.245 2.872-1.98 0-3.735-.41-5.265-1.185-1.53-.775-2.7-1.869-3.51-3.282a9.309 9.309 0 0 1-1.26-4.74c0-1.732.405-3.327 1.215-4.695a8.406 8.406 0 0 1 3.375-3.281c1.44-.775 3.015-1.185 4.77-1.185 1.71 0 3.285.364 4.68 1.14 1.395.728 2.475 1.822 3.285 3.235.81 1.413 1.17 3.008 1.17 4.877.045.137 0 .593-.09 1.459ZM94.5 13.08c-.765.684-1.26 1.55-1.44 2.735h8.64c-.18-1.14-.675-2.006-1.44-2.69-.765-.683-1.755-1.002-2.88-1.002-1.125-.046-2.07.319-2.88.957ZM126.63 18.824h-13.275c.225 1.093.81 1.96 1.71 2.598.9.638 2.025.957 3.33.957.9 0 1.71-.137 2.43-.41.72-.274 1.35-.73 1.98-1.322l2.7 2.962c-1.665 1.915-4.095 2.872-7.245 2.872-1.98 0-3.735-.41-5.265-1.185-1.53-.775-2.7-1.869-3.51-3.282a9.309 9.309 0 0 1-1.26-4.74c0-1.732.405-3.327 1.215-4.695a8.406 8.406 0 0 1 3.375-3.281c1.44-.775 3.015-1.185 4.77-1.185 1.71 0 3.285.364 4.68 1.14 1.395.728 2.475 1.822 3.285 3.235.81 1.413 1.17 3.008 1.17 4.877.045.137 0 .593-.09 1.459Zm-11.925-5.743c-.765.684-1.26 1.55-1.44 2.735h8.685c-.18-1.14-.675-2.006-1.44-2.69-.765-.683-1.755-1.002-2.88-1.002-1.17-.046-2.115.319-2.925.957ZM137.025 19.28l-2.43 2.46v4.513h-5.085V1.686h5.085v13.902l7.47-7.156h6.075l-7.335 7.566 7.965 10.255h-6.165l-5.58-6.974Z" fill="#212121"/><path d="M150.705 25.615c-.63-.638-.9-1.367-.9-2.325 0-.957.315-1.732.9-2.278.63-.593 1.35-.867 2.25-.867.9 0 1.665.274 2.25.867.63.592.9 1.367.9 2.278 0 .912-.315 1.687-.9 2.325-.63.638-1.35.911-2.25.911-.9 0-1.665-.319-2.25-.911Z" fill="#49CCA4"/><path d="M159.66 5.15c-.585-.547-.9-1.23-.9-2.05 0-.821.315-1.505.9-2.052.585-.547 1.35-.82 2.295-.82.945 0 1.71.273 2.295.775.585.501.9 1.185.9 2.005 0 .866-.315 1.55-.9 2.142-.585.547-1.35.866-2.295.866-.945-.045-1.71-.319-2.295-.866Zm-.27 3.327h5.085v17.821h-5.085V8.478ZM180 25.387c-.495.365-1.125.638-1.845.866a9.317 9.317 0 0 1-2.295.273c-2.07 0-3.69-.546-4.86-1.64-1.17-1.094-1.71-2.69-1.71-4.786v-7.293h-2.7V8.842h2.7v-4.33h5.085v4.33h4.365v3.965h-4.365v7.247c0 .73.18 1.322.585 1.732.36.41.9.593 1.62.593.81 0 1.485-.228 2.07-.684l1.35 3.692Z" fill="#212121"/><path d="M90.99 29.99h1.305l-3.105 8.933h-1.305l3.105-8.933ZM94.14 29.99h1.305l-3.105 8.933h-1.305l3.105-8.933ZM97.29 32.998h1.305v1.14h-1.26v3.829h-1.44v-3.83h-.765v-1.139h.765v-.227c0-.593.18-1.049.495-1.368.36-.319.81-.501 1.44-.501.225 0 .405.045.63.091.18.046.36.137.495.182l-.405 1.049a.897.897 0 0 0-.585-.183c-.45 0-.675.228-.675.73v.227ZM100.26 37.693c-.405-.228-.765-.547-.99-.911a2.812 2.812 0 0 1-.36-1.368c0-.501.135-.957.36-1.367.225-.41.585-.73.99-.912.405-.228.9-.319 1.44-.319.54 0 .99.091 1.44.32.405.227.765.546.99.91.225.411.36.867.36 1.368 0 .502-.135.957-.36 1.367-.225.41-.585.73-.99.912-.405.228-.9.32-1.44.32-.54 0-.99-.092-1.44-.32Zm2.385-1.23c.225-.274.36-.593.36-1.049 0-.41-.135-.775-.36-1.048-.225-.274-.54-.365-.9-.365s-.675.137-.945.365c-.225.273-.36.592-.36 1.048 0 .41.135.775.36 1.048.225.274.54.365.945.365.405 0 .63-.137.9-.365ZM107.46 32.998c.315-.136.63-.182 1.035-.182v1.367h-.315c-.405 0-.765.137-.99.365-.225.228-.36.593-.36 1.048v2.416h-1.44v-5.15h1.395v.683c.18-.227.405-.41.675-.547ZM112.185 31.358h1.53v6.654h-1.53v-6.654ZM116.55 32.588h-2.115v-1.23h5.715v1.23h-2.115v5.379h-1.485v-5.379ZM124.47 37.693c-.405-.228-.765-.547-.99-.911a2.812 2.812 0 0 1-.36-1.368c0-.501.135-.957.36-1.367.225-.41.585-.73.99-.912.405-.228.9-.319 1.44-.319.54 0 .99.091 1.395.32.405.227.675.546.855.956l-1.125.638c-.27-.455-.63-.683-1.125-.683-.36 0-.675.137-.945.364-.27.274-.36.593-.36 1.049 0 .456.135.774.36 1.048.27.273.585.365.945.365.495 0 .855-.228 1.125-.684l1.125.638c-.18.41-.45.73-.855.957-.405.228-.855.32-1.395.32a4.017 4.017 0 0 1-1.44-.411ZM129.915 37.693c-.405-.228-.765-.547-.99-.911a2.812 2.812 0 0 1-.36-1.368c0-.501.135-.957.36-1.367.225-.41.585-.73.99-.912.405-.228.9-.319 1.44-.319.54 0 .99.091 1.44.32.405.227.765.546.99.91.225.411.36.867.36 1.368 0 .502-.135.957-.36 1.367-.225.41-.585.73-.99.912-.405.228-.9.32-1.44.32-.54.045-.99-.092-1.44-.32Zm2.34-1.23c.225-.274.36-.593.36-1.049 0-.41-.135-.775-.36-1.048-.225-.274-.54-.365-.9-.365s-.675.137-.945.365c-.225.273-.36.592-.36 1.048 0 .41.135.775.36 1.048.225.274.54.365.945.365.36 0 .675-.137.9-.365ZM142.965 33.363c.36.365.54.957.54 1.686v2.917h-1.44v-2.689c0-.41-.09-.683-.27-.911-.18-.183-.405-.32-.72-.32-.36 0-.63.092-.81.32-.18.228-.315.547-.315 1.002v2.553h-1.44v-2.69c0-.82-.315-1.184-.945-1.184-.315 0-.585.09-.81.319-.18.228-.315.547-.315 1.002v2.553H135v-5.06h1.395v.593c.18-.228.405-.364.675-.501.27-.091.585-.183.9-.183.36 0 .675.092.945.228.27.137.54.365.675.639.225-.274.45-.456.765-.639a2.641 2.641 0 0 1 1.035-.227c.72.045 1.215.227 1.575.592ZM152.685 33.363c.36.365.54.957.54 1.686v2.917h-1.44v-2.689c0-.41-.09-.683-.27-.911-.18-.183-.405-.32-.72-.32-.36 0-.63.092-.81.32-.18.228-.315.547-.315 1.002v2.553h-1.44v-2.69c0-.82-.315-1.184-.945-1.184-.315 0-.585.09-.81.319-.18.228-.315.547-.315 1.002v2.553h-1.44v-5.06h1.395v.593c.18-.228.405-.364.675-.501.27-.091.585-.183.9-.183.36 0 .675.092.945.228.27.137.54.365.675.639.225-.274.45-.456.765-.639a2.641 2.641 0 0 1 1.035-.227c.72.045 1.215.227 1.575.592ZM159.525 32.862v5.104h-1.395v-.592c-.18.228-.405.41-.675.501-.27.137-.54.182-.855.182-.675 0-1.17-.182-1.575-.592-.405-.365-.585-.957-.585-1.732v-2.871h1.44v2.689c0 .82.36 1.23 1.035 1.23.36 0 .63-.136.855-.364.225-.228.315-.593.315-1.049v-2.506h1.44ZM165.33 33.363c.405.365.585.957.585 1.686v2.917h-1.44v-2.689c0-.41-.09-.683-.27-.911a1.002 1.002 0 0 0-.765-.32c-.36 0-.675.137-.9.365-.225.228-.315.593-.315 1.049v2.506h-1.44v-5.104h1.395v.592c.18-.228.45-.364.72-.501.27-.137.585-.183.945-.183.585.046 1.125.228 1.485.593ZM167.175 31.95a.739.739 0 0 1-.27-.592c0-.228.09-.41.27-.593.18-.137.405-.228.675-.228s.495.091.675.228c.18.137.27.319.27.547 0 .228-.09.456-.27.592-.18.183-.405.228-.675.228a.853.853 0 0 1-.675-.182Zm-.09.912h1.44v5.104h-1.44v-5.104ZM173.115 37.739a1.491 1.491 0 0 1-.54.227 3.43 3.43 0 0 1-.675.092c-.585 0-1.08-.137-1.395-.456-.315-.32-.495-.775-.495-1.367v-2.097h-.765v-1.14h.765v-1.23h1.44v1.23h1.26v1.14h-1.26v2.096c0 .228.045.365.18.502.09.137.27.182.45.182a.896.896 0 0 0 .585-.182l.45 1.003ZM179.01 32.862l-2.295 5.423c-.225.593-.495 1.003-.855 1.231-.36.228-.765.365-1.215.365-.27 0-.54-.046-.765-.137a2.053 2.053 0 0 1-.63-.32l.54-1.047c.09.09.225.182.405.227.135.046.27.092.45.092s.36-.046.495-.137c.135-.091.225-.274.315-.502v-.045l-2.205-5.15h1.485l1.395 3.463 1.44-3.463h1.44Z" fill="#49CCA4"/></g><defs><clipPath id="a"><path fill="#fff" d="M0 0h180v40H0z"/></clipPath></defs></svg>