<svg width="24" height="23" viewBox="0 0 24 23" fill="none" xmlns="http://www.w3.org/2000/svg">
  <path d="M22.3671 5.87451C21.2952 4.07332 19.8411 2.64732 18.0046 1.59618C16.1678 0.544993 14.1626 0.0195312 11.9875 0.0195312C9.81266 0.0195312 7.80678 0.545154 5.97037 1.59618C4.13369 2.64727 2.67969 4.07332 1.60773 5.87451C0.535927 7.67564 0 9.64248 0 11.775C0 14.3366 0.762096 16.6401 2.28667 18.686C3.81108 20.7321 5.78039 22.1479 8.19444 22.9336C8.47544 22.9848 8.68346 22.9488 8.81872 22.8266C8.95402 22.7043 9.0216 22.5511 9.0216 22.3676C9.0216 22.337 9.01892 22.0616 9.01372 21.541C9.00836 21.0205 9.00585 20.5664 9.00585 20.179L8.64683 20.2399C8.41793 20.281 8.12917 20.2984 7.78054 20.2935C7.43207 20.2887 7.07032 20.2529 6.69578 20.1863C6.32107 20.1203 5.97256 19.9672 5.64995 19.7274C5.32751 19.4876 5.09861 19.1737 4.9633 18.7862L4.80722 18.434C4.70318 18.1994 4.53939 17.9389 4.31563 17.6534C4.09186 17.3676 3.86559 17.1738 3.63668 17.0718L3.5274 16.9951C3.45458 16.9441 3.38701 16.8826 3.32452 16.8112C3.26209 16.7399 3.21534 16.6685 3.18413 16.597C3.15286 16.5254 3.17877 16.4667 3.26214 16.4206C3.34551 16.3746 3.49618 16.3522 3.71481 16.3522L4.02686 16.3979C4.23499 16.4389 4.49243 16.561 4.79951 16.7652C5.10642 16.9693 5.35872 17.2346 5.55646 17.561C5.79592 17.9795 6.08441 18.2984 6.42276 18.5178C6.76084 18.7372 7.1017 18.8468 7.44503 18.8468C7.78836 18.8468 8.08488 18.8213 8.33472 18.7705C8.58429 18.7194 8.81844 18.6427 9.03707 18.5408C9.13072 17.8568 9.38569 17.3313 9.80179 16.964C9.20873 16.9029 8.67554 16.8108 8.20193 16.6884C7.7286 16.5659 7.23947 16.367 6.73487 16.0912C6.23 15.8158 5.81117 15.4738 5.47829 15.0658C5.14535 14.6576 4.87211 14.1216 4.65895 13.4585C4.44569 12.7951 4.33903 12.0298 4.33903 11.1625C4.33903 9.92749 4.75014 8.87657 5.57221 8.00911C5.18712 7.08064 5.22347 6.03979 5.68139 4.88668C5.98316 4.79474 6.43069 4.86374 7.02375 5.09326C7.61691 5.32288 8.05121 5.51959 8.32707 5.68268C8.60293 5.84572 8.82396 5.98388 8.99049 6.09593C9.95841 5.8307 10.9573 5.69807 11.9874 5.69807C13.0175 5.69807 14.0165 5.8307 14.9845 6.09593L15.5776 5.72873C15.9832 5.48372 16.4622 5.25919 17.0134 5.05508C17.5649 4.85109 17.9866 4.7949 18.2781 4.88685C18.7462 6.04001 18.7879 7.0808 18.4027 8.00927C19.2247 8.87673 19.636 9.92792 19.636 11.1626C19.636 12.03 19.5289 12.7977 19.316 13.4662C19.1028 14.1348 18.8272 14.6702 18.4891 15.0734C18.1507 15.4767 17.7292 15.816 17.2246 16.0913C16.7199 16.3669 16.2306 16.5658 15.7572 16.6884C15.2837 16.8109 14.7505 16.903 14.1574 16.9643C14.6983 17.4233 14.9688 18.1479 14.9688 19.1377V22.3672C14.9688 22.5506 15.0339 22.7038 15.1641 22.8262C15.2942 22.9484 15.4996 22.9844 15.7806 22.9332C18.195 22.1476 20.1643 20.7317 21.6886 18.6856C23.2128 16.6397 23.9752 14.3362 23.9752 11.7746C23.9746 9.64232 23.4384 7.67564 22.3671 5.87451Z" fill="#fff" />
</svg>