<svg width="24" height="24" viewBox="0 0 24 24" fill="none" xmlns="http://www.w3.org/2000/svg">
  <path d="M11.972 0C18.5843 0 23.944 5.36047 23.944 11.9721C23.944 18.5836 18.5843 23.944 11.972 23.944C5.35964 23.944 0 18.5836 0 11.9721C0 5.36055 5.35973 0 11.972 0Z" fill="#fff" />
  <path fill-rule="evenodd" clip-rule="evenodd" d="M8.97895 7.10817C8.97895 7.72773 8.4761 8.23058 7.85654 8.23058C7.23698 8.23058 6.73413 7.72781 6.73413 7.10825C6.73413 6.48869 7.23698 5.98584 7.85654 5.98584C8.4761 5.98584 8.97895 6.48861 8.97895 7.10817ZM15.4797 8.71847C14.3918 8.71847 13.4183 9.11579 12.7277 9.99277V8.95272H10.4777V16.4494H12.7277V12.3954C12.7277 11.5386 13.5127 10.7028 14.4958 10.7028C15.479 10.7028 15.7215 11.5386 15.7215 12.3744V16.4487H17.9633V12.2076C17.9632 9.26168 16.5685 8.71847 15.4797 8.71847ZM6.74613 16.4493H8.98791V8.97729H6.74613V16.4493Z" fill="#000" />
</svg>